<svg width="136" height="16" viewBox="0 0 77 14" fill="none">
<path fill="#475467" style="fill: var(--color1, #475467)" d="M288.838 15.333h-7.697c-0.041-0.475-0.207-0.884-0.501-1.227-0.292-0.343-0.672-0.606-1.135-0.788-0.457-0.192-0.96-0.288-1.517-0.288-0.717 0-1.333 0.131-1.847 0.394-0.516 0.263-0.768 0.636-0.757 1.121-0.011 0.343 0.137 0.662 0.439 0.955 0.311 0.293 0.913 0.52 1.803 0.682l4.727 0.849c2.383 0.434 4.156 1.167 5.318 2.197 1.171 1.020 1.762 2.389 1.773 4.106-0.011 1.657-0.506 3.096-1.485 4.318-0.971 1.212-2.3 2.151-3.985 2.818-1.677 0.656-3.593 0.985-5.743 0.985-3.556 0-6.338-0.727-8.348-2.182-2.001-1.454-3.117-3.374-3.349-5.758h8.303c0.111 0.738 0.476 1.308 1.090 1.712 0.627 0.394 1.414 0.591 2.364 0.591 0.768 0 1.399-0.131 1.894-0.394 0.506-0.263 0.764-0.636 0.772-1.121-0.009-0.445-0.233-0.798-0.666-1.061-0.425-0.263-1.092-0.475-2.001-0.636l-4.119-0.727c-2.374-0.414-4.151-1.202-5.333-2.364s-1.769-2.657-1.758-4.485c-0.011-1.616 0.414-2.985 1.271-4.106 0.868-1.131 2.106-1.99 3.712-2.576 1.617-0.596 3.531-0.894 5.743-0.894 3.364 0 6.016 0.697 7.955 2.091 1.95 1.394 2.974 3.323 3.076 5.788z"></path>
<path fill="#475467" style="fill: var(--color1, #475467)" d="M248.352 25.515l0.060-9.939h1.092l5.636-7.818h9.393l-9.455 12.182h-2.364l-4.363 5.576zM240.836 31.030v-31.030h8.365v31.030h-8.365zM255.2 31.030l-5.333-9.212 5.455-5.939 9.455 15.152h-9.577z"></path>
<path fill="#475467" style="fill: var(--color1, #475467)" d="M225.321 31.454c-2.526 0-4.687-0.5-6.485-1.5-1.798-1.010-3.177-2.414-4.137-4.212-0.96-1.808-1.439-3.904-1.439-6.288s0.479-4.475 1.439-6.273c0.96-1.808 2.338-3.212 4.137-4.212 1.798-1.010 3.959-1.515 6.485-1.515 2.283 0 4.258 0.414 5.924 1.242 1.677 0.818 2.974 1.98 3.893 3.485 0.919 1.495 1.385 3.253 1.395 5.273h-7.759c-0.111-1.222-0.465-2.152-1.060-2.788-0.587-0.646-1.344-0.97-2.272-0.97-0.727 0-1.365 0.212-1.909 0.636-0.546 0.414-0.971 1.045-1.274 1.894-0.303 0.838-0.454 1.894-0.454 3.167s0.151 2.333 0.454 3.182c0.303 0.838 0.727 1.47 1.274 1.894 0.544 0.414 1.182 0.621 1.909 0.621 0.617 0 1.161-0.141 1.636-0.424 0.474-0.293 0.858-0.717 1.152-1.273 0.303-0.566 0.484-1.252 0.544-2.061h7.759c-0.032 2.051-0.501 3.838-1.41 5.364-0.909 1.515-2.197 2.687-3.863 3.515-1.658 0.828-3.637 1.242-5.939 1.242z"></path>
<path fill="#475467" style="fill: var(--color1, #475467)" d="M200.637 20.848v-13.091h8.364v23.273h-7.939v-4.424h-0.243c-0.505 1.485-1.389 2.646-2.651 3.485-1.263 0.828-2.763 1.242-4.5 1.242-1.626 0-3.051-0.374-4.273-1.121-1.212-0.748-2.157-1.778-2.833-3.091-0.667-1.313-1.005-2.818-1.015-4.515v-14.849h8.364v13.091c0.010 1.152 0.303 2.056 0.879 2.712 0.586 0.657 1.404 0.985 2.455 0.985 0.697 0 1.298-0.147 1.803-0.439 0.515-0.303 0.909-0.727 1.182-1.273 0.283-0.556 0.419-1.217 0.409-1.985z"></path>
<path fill="#475467" style="fill: var(--color1, #475467)" d="M166.193 31.030v-23.273h8.121v4.424h0.242c0.424-1.636 1.096-2.833 2.015-3.591 0.929-0.758 2.015-1.136 3.258-1.136 0.364 0 0.722 0.030 1.076 0.091 0.364 0.051 0.712 0.126 1.045 0.227v7.136c-0.414-0.141-0.924-0.247-1.53-0.318s-1.126-0.106-1.561-0.106c-0.818 0-1.556 0.187-2.212 0.561-0.646 0.364-1.156 0.879-1.53 1.545-0.374 0.657-0.561 1.429-0.561 2.318v12.121h-8.364z"></path>
<path fill="#475467" style="fill: var(--color1, #475467)" d="M137.495 6.788v-6.788h26.97v6.788h-9.333v24.243h-8.303v-24.243h-9.333z"></path>
<path fill="#101828" style="fill: var(--color2, #101828)" d="M133.35 0v31.030h-8.364v-31.030h8.364z"></path>
<path fill="#101828" style="fill: var(--color2, #101828)" d="M109.326 31.454c-2.485 0-4.626-0.475-6.424-1.424-1.788-0.96-3.166-2.333-4.136-4.121-0.96-1.798-1.439-3.949-1.439-6.455 0-2.404 0.485-4.505 1.454-6.303s2.338-3.197 4.106-4.197 3.854-1.5 6.258-1.5c1.757 0 3.348 0.273 4.773 0.818s2.641 1.338 3.651 2.379c1.010 1.030 1.788 2.283 2.333 3.758s0.818 3.136 0.818 4.985v1.939h-20.788v-4.606h13.091c-0.010-0.667-0.182-1.253-0.515-1.758-0.323-0.515-0.763-0.914-1.318-1.197-0.546-0.293-1.167-0.439-1.864-0.439-0.677 0-1.298 0.146-1.864 0.439-0.566 0.283-1.020 0.677-1.364 1.182-0.333 0.505-0.51 1.096-0.53 1.773v4.97c0 0.747 0.157 1.414 0.47 2s0.763 1.045 1.348 1.379c0.586 0.333 1.293 0.5 2.121 0.5 0.576 0 1.101-0.081 1.576-0.242 0.485-0.162 0.899-0.394 1.242-0.697 0.343-0.313 0.596-0.687 0.758-1.121h7.636c-0.263 1.616-0.884 3.020-1.864 4.212-0.98 1.182-2.278 2.101-3.894 2.758-1.606 0.646-3.485 0.97-5.636 0.97z"></path>
<path fill="#101828" style="fill: var(--color2, #101828)" d="M95.651 7.758l-7.818 23.273h-9.697l-7.818-23.273h8.788l3.758 15.394h0.242l3.758-15.394h8.788z"></path>
<path fill="#101828" style="fill: var(--color2, #101828)" d="M53.453 31.394c-1.485 0-2.798-0.242-3.939-0.727-1.131-0.495-2.020-1.242-2.667-2.242s-0.97-2.273-0.97-3.818c0-1.273 0.217-2.359 0.652-3.258 0.434-0.909 1.040-1.651 1.818-2.227s1.682-1.015 2.712-1.318c1.040-0.303 2.161-0.5 3.364-0.591 1.303-0.101 2.348-0.222 3.136-0.364 0.798-0.151 1.374-0.359 1.727-0.621 0.353-0.273 0.53-0.631 0.53-1.076v-0.061c0-0.606-0.232-1.071-0.697-1.394s-1.061-0.485-1.788-0.485c-0.798 0-1.449 0.177-1.955 0.53-0.495 0.343-0.793 0.874-0.894 1.591h-7.697c0.101-1.414 0.551-2.717 1.348-3.909 0.808-1.202 1.985-2.162 3.53-2.879 1.545-0.727 3.475-1.091 5.788-1.091 1.667 0 3.162 0.197 4.485 0.591 1.323 0.384 2.449 0.924 3.379 1.621 0.929 0.687 1.636 1.495 2.121 2.424 0.495 0.919 0.742 1.919 0.742 3v15.939h-7.818v-3.273h-0.182c-0.465 0.869-1.030 1.571-1.697 2.106-0.657 0.535-1.409 0.924-2.258 1.167-0.838 0.242-1.763 0.364-2.773 0.364zM56.18 26.121c0.636 0 1.232-0.131 1.788-0.394 0.566-0.263 1.025-0.642 1.379-1.136s0.53-1.096 0.53-1.803v-1.939c-0.222 0.091-0.46 0.177-0.712 0.258-0.243 0.081-0.505 0.157-0.788 0.227-0.273 0.071-0.566 0.136-0.879 0.197-0.303 0.061-0.621 0.116-0.954 0.167-0.646 0.101-1.177 0.268-1.591 0.5-0.404 0.222-0.707 0.5-0.909 0.834-0.192 0.323-0.288 0.687-0.288 1.091 0 0.647 0.227 1.142 0.682 1.485s1.035 0.515 1.742 0.515z"></path>
<path fill="#101828" style="fill: var(--color2, #101828)" d="M28.698 31.030v-23.273h8.121v4.424h0.242c0.424-1.636 1.096-2.833 2.015-3.591 0.929-0.758 2.015-1.136 3.258-1.136 0.364 0 0.722 0.030 1.076 0.091 0.364 0.051 0.712 0.126 1.045 0.227v7.136c-0.414-0.141-0.924-0.247-1.53-0.318s-1.126-0.106-1.561-0.106c-0.818 0-1.555 0.187-2.212 0.561-0.646 0.364-1.156 0.879-1.53 1.545-0.374 0.657-0.561 1.429-0.561 2.318v12.121h-8.364z"></path>
<path fill="#101828" style="fill: var(--color2, #101828)" d="M0 6.788v-6.788h26.97v6.788h-9.333v24.243h-8.303v-24.243h-9.333z"></path>
</svg>